<svg width="22" height="14" viewBox="0 0 22 14" fill="none" xmlns="http://www.w3.org/2000/svg" xmlns:xlink="http://www.w3.org/1999/xlink">
<path d="M13.956,0.351C13.424,-0.143 12.594,-0.112 12.101,0.419C11.607,0.951 11.638,1.781 12.169,2.274L13.956,0.351ZM19.188,7L20.081,7.962C20.348,7.713 20.5,7.365 20.5,7C20.5,6.635 20.348,6.286 20.081,6.038L19.188,7ZM12.169,11.726C11.638,12.219 11.607,13.049 12.101,13.581C12.594,14.112 13.424,14.142 13.956,13.649L12.169,11.726ZM0.813,5.687C0.088,5.687 -0.5,6.275 -0.5,7C-0.5,7.725 0.088,8.312 0.813,8.312L0.813,5.687ZM12.169,2.274L18.294,7.962L20.081,6.038L13.956,0.351L12.169,2.274ZM18.294,6.038L12.169,11.726L13.956,13.649L20.081,7.962L18.294,6.038ZM19.188,5.687L0.813,5.687L0.813,8.312L19.188,8.312L19.188,5.687Z" transform="rotate(180 10 7)" fill="#C61E4A"/>
</svg>